<?xml version="1.0" encoding="utf-8"?>
<!-- Generator: Adobe Illustrator 27.0.0, SVG Export Plug-In . SVG Version: 6.00 Build 0)  -->
<svg version="1.1" id="Layer_1" xmlns="http://www.w3.org/2000/svg" xmlns:xlink="http://www.w3.org/1999/xlink" x="0px" y="0px"
	 viewBox="0 0 47 47" style="enable-background:new 0 0 47 47;" xml:space="preserve">
<style type="text/css">
	.st0{clip-path:url(#SVGID_00000122705979210851221430000012722039296519185599_);}
	.st1{fill:#E69B00;}
</style>
<g>
	<defs>
		<rect id="SVGID_1_" width="47" height="47"/>
	</defs>
	<clipPath id="SVGID_00000163060254067528595010000017310345393370065822_">
		<use xlink:href="#SVGID_1_"  style="overflow:visible;"/>
	</clipPath>
	<g style="clip-path:url(#SVGID_00000163060254067528595010000017310345393370065822_);">
		<path class="st1" d="M29,23.9c-0.5,0-0.9,0.4-0.9,0.9c0,0.5,0.4,0.9,0.9,0.9c0.5,0,0.9-0.4,0.9-0.9C29.9,24.3,29.5,23.9,29,23.9z"
			/>
		<path class="st1" d="M9.4,33.9L0.2,45.5c-0.2,0.3-0.3,0.7-0.1,1C0.2,46.8,0.6,47,0.9,47h45.2c0.4,0,0.7-0.2,0.8-0.5
			c0.2-0.3,0.1-0.7-0.1-1l-9.2-11.6c-0.2-0.2-0.4-0.3-0.7-0.3h-8l6.9-10.8c1.6-2.4,2.5-5.2,2.5-8.1C38.2,6.6,31.6,0,23.5,0
			S8.8,6.6,8.8,14.7c0,2.9,0.9,5.7,2.5,8.1l6.9,10.8h-8C9.8,33.6,9.6,33.7,9.4,33.9z M6,41.2h5.6l-3.1,3.9H2.8L6,41.2z M19.3,35.4
			l2.5,3.9h-6.5l3.1-3.9H19.3z M27.7,35.4h0.9l3.1,3.9h-6.5L27.7,35.4z M33.2,41.2l3.1,3.9H10.7l3.1-3.9H33.2z M38.6,45.2l-3.1-3.9
			H41l3.1,3.9H38.6z M39.6,39.4H34l-3.1-3.9h5.6L39.6,39.4z M12.8,21.8c-1.4-2.1-2.2-4.6-2.2-7.1c0-7.1,5.8-12.9,12.9-12.9
			s12.9,5.8,12.9,12.9c0,2.6-0.7,5-2.2,7.1c0,0,0,0,0,0c-0.6,0.9-10.2,16-10.7,16.8C22.3,36.8,14,23.7,12.8,21.8
			C12.8,21.8,12.8,21.8,12.8,21.8z M16.1,35.4L13,39.4H7.4l3.1-3.9H16.1z"/>
		<path class="st1" d="M23.5,23.9c5,0,9.2-4.1,9.2-9.2c0-5.1-4.1-9.2-9.2-9.2s-9.2,4.1-9.2,9.2C14.3,19.8,18.5,23.9,23.5,23.9z
			 M23.5,7.3c4,0,7.3,3.3,7.3,7.3c0,4.1-3.3,7.3-7.3,7.3c-4,0-7.3-3.3-7.3-7.3C16.2,10.6,19.5,7.3,23.5,7.3z"/>
		<path class="st1" d="M27.4,27c-0.4-0.3-1-0.1-1.3,0.3l-3.4,5.6c-0.3,0.4-0.1,1,0.3,1.3c0.4,0.3,1,0.1,1.3-0.3l3.4-5.6
			C27.9,27.8,27.8,27.3,27.4,27z"/>
	</g>
</g>
</svg>
