<?xml version="1.0" encoding="utf-8"?>
<!-- Generator: Adobe Illustrator 27.0.0, SVG Export Plug-In . SVG Version: 6.00 Build 0)  -->
<svg version="1.1" id="Layer_1" xmlns="http://www.w3.org/2000/svg" xmlns:xlink="http://www.w3.org/1999/xlink" x="0px" y="0px"
	 viewBox="0 0 47 47" style="enable-background:new 0 0 47 47;" xml:space="preserve">
<style type="text/css">
	.st0{clip-path:url(#SVGID_00000029736397065622923070000013701764629288316605_);}
	.st1{fill:#E69B00;}
</style>
<g>
	<defs>
		<rect id="SVGID_1_" width="47" height="47"/>
	</defs>
	<clipPath id="SVGID_00000070084706284892937360000009072948144299492763_">
		<use xlink:href="#SVGID_1_"  style="overflow:visible;"/>
	</clipPath>
	<g style="clip-path:url(#SVGID_00000070084706284892937360000009072948144299492763_);">
		<path class="st1" d="M37.1,29.1c-1-1-2.1-1.5-3.4-1.5c-1.2,0-2.4,0.5-3.4,1.5l-3.1,3.1c-0.3-0.1-0.5-0.3-0.8-0.4
			c-0.4-0.2-0.7-0.3-1-0.5c-2.9-1.9-5.6-4.3-8.2-7.4c-1.2-1.6-2.1-2.9-2.7-4.2c0.8-0.7,1.6-1.5,2.3-2.3c0.3-0.3,0.6-0.6,0.8-0.8
			c2.1-2.1,2.1-4.8,0-6.9L15.1,7c-0.3-0.3-0.6-0.6-0.9-0.9c-0.6-0.6-1.2-1.2-1.9-1.8c-1-1-2.1-1.5-3.3-1.5c-1.2,0-2.4,0.5-3.4,1.5
			c0,0,0,0,0,0L2.2,7.6c-1.3,1.3-2,2.8-2.2,4.6c-0.2,2.9,0.6,5.6,1.3,7.4c1.6,4.3,4,8.4,7.6,12.7c4.3,5.2,9.6,9.3,15.5,12.2
			c2.3,1.1,5.3,2.4,8.7,2.6c0.2,0,0.4,0,0.6,0c2.3,0,4.2-0.8,5.7-2.5c0,0,0,0,0,0c0.5-0.6,1.1-1.2,1.7-1.8c0.4-0.4,0.9-0.8,1.3-1.3
			c1-1,1.5-2.2,1.5-3.4c0-1.2-0.5-2.4-1.5-3.4L37.1,29.1z M40.7,39.6C40.7,39.6,40.7,39.6,40.7,39.6c-0.4,0.4-0.8,0.8-1.2,1.2
			c-0.6,0.6-1.3,1.3-1.9,2c-1,1.1-2.2,1.6-3.7,1.6c-0.1,0-0.3,0-0.5,0c-2.9-0.2-5.7-1.3-7.7-2.3C20,39.3,15.1,35.4,11,30.5
			c-3.4-4.1-5.6-7.8-7.1-11.9c-0.9-2.5-1.3-4.4-1.1-6.2c0.1-1.2,0.5-2.1,1.4-2.9l3.4-3.4C8,5.6,8.5,5.4,9,5.4c0.6,0,1.1,0.4,1.4,0.7
			c0,0,0,0,0,0c0.6,0.6,1.2,1.2,1.8,1.8c0.3,0.3,0.6,0.6,0.9,1l2.7,2.7c1.1,1.1,1.1,2,0,3.1c-0.3,0.3-0.6,0.6-0.9,0.9
			c-0.8,0.9-1.6,1.6-2.5,2.4c0,0,0,0,0,0c-0.9,0.9-0.7,1.7-0.5,2.3c0,0,0,0.1,0,0.1c0.7,1.7,1.7,3.3,3.2,5.2l0,0
			c2.7,3.4,5.6,6,8.8,8c0.4,0.3,0.8,0.5,1.2,0.7c0.4,0.2,0.7,0.3,1,0.5c0,0,0.1,0,0.1,0.1c0.3,0.2,0.7,0.2,1,0.2
			c0.8,0,1.3-0.5,1.5-0.7l3.4-3.4c0.3-0.3,0.9-0.7,1.5-0.7c0.6,0,1.1,0.4,1.4,0.7c0,0,0,0,0,0l5.5,5.5
			C41.7,37.5,41.7,38.5,40.7,39.6z"/>
		<path class="st1" d="M25.4,11.2c2.6,0.4,5,1.7,6.8,3.6c1.9,1.9,3.1,4.2,3.6,6.8c0.1,0.7,0.7,1.1,1.3,1.1c0.1,0,0.1,0,0.2,0
			c0.7-0.1,1.2-0.8,1.1-1.5c-0.5-3.1-2-6-4.3-8.3S29,9.1,25.9,8.5c-0.7-0.1-1.4,0.4-1.5,1.1C24.2,10.4,24.7,11.1,25.4,11.2z"/>
		<path class="st1" d="M46.9,20.7c-0.9-5.2-3.3-9.9-7.1-13.6C36.1,3.3,31.4,0.9,26.2,0c-0.7-0.1-1.4,0.4-1.5,1.1
			c-0.1,0.7,0.4,1.4,1.1,1.5c4.6,0.8,8.8,3,12.2,6.3c3.4,3.4,5.5,7.6,6.3,12.2c0.1,0.7,0.7,1.1,1.3,1.1c0.1,0,0.1,0,0.2,0
			C46.6,22.2,47.1,21.5,46.9,20.7z"/>
	</g>
</g>
</svg>
