<?xml version="1.0" encoding="utf-8"?>
<!-- Generator: Adobe Illustrator 26.5.0, SVG Export Plug-In . SVG Version: 6.00 Build 0)  -->
<svg version="1.1" id="Layer_1" xmlns="http://www.w3.org/2000/svg" xmlns:xlink="http://www.w3.org/1999/xlink" x="0px" y="0px"
	 viewBox="0 0 94 94" style="enable-background:new 0 0 94 94;" xml:space="preserve">
<style type="text/css">
	.st0{clip-path:url(#SVGID_00000001654882680264562420000014126563478698945198_);}
	.st1{fill:#F7E1B3;fill-opacity:0.2;}
	.st2{fill:#F7E1B3;fill-opacity:0.4;}
	.st3{fill:#E69B00;fill-opacity:0.8;}
	.st4{fill:#FFFFFF;}
</style>
<g>
	<defs>
		<path id="SVGID_1_" d="M47,0L47,0c26,0,47,21,47,47l0,0c0,26-21,47-47,47l0,0C21,94,0,73,0,47l0,0C0,21,21,0,47,0z"/>
	</defs>
	<clipPath id="SVGID_00000119109753212963575690000000058499539399076493_">
		<use xlink:href="#SVGID_1_"  style="overflow:visible;"/>
	</clipPath>
	<g style="clip-path:url(#SVGID_00000119109753212963575690000000058499539399076493_);">
		<circle class="st1" cx="47.5" cy="47.5" r="61.5"/>
		<circle class="st2" cx="47.5" cy="47.5" r="46.5"/>
		<circle class="st3" cx="47.5" cy="47.5" r="34.5"/>
		<path class="st4" d="M64,44.5L40.6,31c-0.4-0.3-0.9-0.4-1.4-0.4c-0.5,0-1,0.1-1.4,0.4c-0.4,0.3-0.8,0.6-1.1,1.1
			c-0.3,0.4-0.4,0.9-0.4,1.4v27c0,0.5,0.1,1,0.4,1.5c0.3,0.4,0.6,0.8,1.1,1.1s0.9,0.4,1.5,0.4s1-0.1,1.4-0.4L64,49.5
			c0.4-0.3,0.8-0.6,1.1-1.1c0.3-0.4,0.4-0.9,0.4-1.4s-0.1-1-0.4-1.4C64.8,45.1,64.4,44.7,64,44.5z M62.7,47.3L39.3,60.8
			c0,0-0.1,0-0.2,0c-0.1,0-0.1,0-0.2,0c-0.1,0-0.1-0.1-0.1-0.1s0-0.1,0-0.2v-27c0-0.1,0-0.1,0-0.2c0-0.1,0.1-0.1,0.1-0.1
			c0,0,0.1,0,0.2,0c0.1,0,0.1,0,0.2,0l23.3,13.5c0,0,0.1,0.1,0.1,0.1s0,0.1,0,0.2c0,0.1,0,0.1,0,0.2C62.8,47.2,62.7,47.3,62.7,47.3
			L62.7,47.3z"/>
	</g>
</g>
</svg>
