<?xml version="1.0" encoding="utf-8"?>
<!-- Generator: Adobe Illustrator 26.5.0, SVG Export Plug-In . SVG Version: 6.00 Build 0)  -->
<svg version="1.1" id="Layer_1" xmlns="http://www.w3.org/2000/svg" xmlns:xlink="http://www.w3.org/1999/xlink" x="0px" y="0px"
	 viewBox="0 0 65 65" style="enable-background:new 0 0 65 65;" xml:space="preserve">
<style type="text/css">
	.st0{fill:#E69B00;}
</style>
<path class="st0" d="M54.6,48.9c-0.5-0.2-1.1-0.3-1.6-0.3l-1.2-7.1c0-0.2-0.2-0.5-0.3-0.6c-0.2-0.2-0.4-0.2-0.7-0.2h-4.6l-1.5-2h9.1
	c0.7,0,1.4-0.3,2-0.7c0.6-0.5,0.9-1.1,1-1.8c0.1-0.7,0-1.4-0.4-2.1c-0.4-0.6-1-1.1-1.6-1.3c-0.2-4.2-1.8-8.1-4.6-11.3
	c-2.8-3.1-6.5-5.2-10.6-5.9v-1.3c0-0.8-0.3-1.6-0.9-2.1c-0.6-0.6-1.3-0.9-2.1-0.9c-0.8,0-1.6,0.3-2.2,0.9c-0.6,0.6-0.9,1.3-0.9,2.2
	v1.3c-4.1,0.7-7.9,2.8-10.6,5.9c-2.8,3.1-4.4,7.1-4.6,11.3c-0.7,0.2-1.3,0.7-1.6,1.3c-0.4,0.6-0.5,1.3-0.4,2.1
	c0.1,0.7,0.5,1.4,1,1.8c0.6,0.5,1.2,0.7,2,0.7h9.1l-1.5,2h-4.6c-0.2,0-0.5,0.1-0.7,0.2c-0.2,0.2-0.3,0.4-0.3,0.6l-0.5,3.2h-2.5
	c0-0.3-0.1-0.5-0.3-0.7c-0.2-0.2-0.4-0.3-0.7-0.3H3v2h13.2v12.2H3v2h14.2c0.3,0,0.5-0.1,0.7-0.3c0.2-0.2,0.3-0.4,0.3-0.7v-0.4
	l7.6,3.1c4.1,1.7,8.8,1.7,12.9,0.1l15.7-6c0.5-0.2,0.9-0.4,1.2-0.8c0.4-0.3,0.6-0.7,0.8-1.2c0.2-0.5,0.3-1,0.3-1.5
	c0-0.5-0.1-1-0.3-1.5c-0.2-0.5-0.5-0.9-0.8-1.2C55.5,49.3,55,49.1,54.6,48.9z M35.5,14.2c0-0.3,0.1-0.5,0.3-0.7
	c0.2-0.2,0.4-0.3,0.7-0.3c0.1,0,0.3,0,0.4,0.1c0.1,0.1,0.2,0.1,0.3,0.2c0.1,0.1,0.2,0.2,0.2,0.3c0.1,0.1,0.1,0.3,0.1,0.4v1.1
	c-0.3,0-0.7-0.1-1-0.1s-0.7,0-1,0.1V14.2z M36.6,17.3c4.1,0,8.1,1.6,11.1,4.4c3,2.8,4.8,6.7,5.1,10.8H20.4c0.3-4.1,2.1-8,5.1-10.8
	S32.4,17.3,36.6,17.3z M18.3,35.5c0-0.3,0.1-0.5,0.3-0.7c0.2-0.2,0.4-0.3,0.7-0.3h34.5c0.3,0,0.5,0.1,0.7,0.3
	c0.2,0.2,0.3,0.4,0.3,0.7c0,0.3-0.1,0.5-0.3,0.7c-0.2,0.2-0.4,0.3-0.7,0.3H19.3c-0.3,0-0.5-0.1-0.7-0.3
	C18.4,36.1,18.3,35.8,18.3,35.5z M31,38.6h11.2l1.5,2H29.5L31,38.6z M49.9,42.7l1.1,6.5l-5.9,2.5c0-0.1,0-0.2,0-0.4
	c0-0.9-0.4-1.8-1-2.5c-0.7-0.7-1.6-1-2.5-1h-7.9c-0.8,0-1.6-0.2-2.3-0.5c-2.7-1.3-5.6-2.2-8.6-2.4l0.4-2.1H49.9z M54.7,53
	c-0.1,0.2-0.2,0.4-0.4,0.5c-0.2,0.2-0.4,0.3-0.6,0.4l-15.7,6c-3.7,1.4-7.8,1.4-11.4-0.1l-8.4-3.5v-9.6h2.6c3.4,0,6.7,0.8,9.7,2.3
	c1,0.5,2.1,0.8,3.2,0.8h7.9c0.4,0,0.7,0.1,1,0.4c0.3,0.2,0.5,0.6,0.5,1c0,0.4-0.1,0.7-0.3,1c-0.2,0.3-0.5,0.5-0.9,0.6
	c-0.1,0-0.3,0-0.4,0H29.5v2h12.1h0.1c0,0,0,0,0.1,0c0.8,0,1.6-0.2,2.3-0.5l8.5-3.6c0.2-0.1,0.4-0.1,0.6-0.1c0.2,0,0.4,0,0.6,0.1
	c0.2,0.1,0.4,0.2,0.6,0.4c0.2,0.2,0.3,0.4,0.4,0.6c0.1,0.2,0.1,0.4,0.1,0.7C54.8,52.6,54.8,52.8,54.7,53L54.7,53z"/>
<path class="st0" d="M12.2,53.8h2v2h-2V53.8z"/>
<path class="st0" d="M25.3,28.8c0.9-2.2,2.5-4.1,4.5-5.5c2-1.3,4.4-2,6.8-2v-2c-2.8,0-5.6,0.8-7.9,2.4c-2.3,1.6-4.2,3.8-5.2,6.4
	L25.3,28.8z"/>
<path class="st0" d="M35.5,5.1h2v4.1h-2V5.1z"/>
<path class="st0" d="M27.4,13.2h4.1v2h-4.1V13.2z"/>
<path class="st0" d="M41.6,13.2h4.1v2h-4.1V13.2z"/>
<path class="st0" d="M39.1,10.3l2.9-2.9l1.4,1.4l-2.9,2.9L39.1,10.3z"/>
<path class="st0" d="M29.7,8.8l1.4-1.4l2.9,2.9l-1.4,1.4L29.7,8.8z"/>
</svg>
