<?xml version="1.0" encoding="utf-8"?>
<!-- Generator: Adobe Illustrator 26.5.0, SVG Export Plug-In . SVG Version: 6.00 Build 0)  -->
<svg version="1.1" id="Layer_1" xmlns="http://www.w3.org/2000/svg" xmlns:xlink="http://www.w3.org/1999/xlink" x="0px" y="0px"
	 viewBox="0 0 65 65" style="enable-background:new 0 0 65 65;" xml:space="preserve">
<style type="text/css">
	.st0{fill:#E69B00;}
</style>
<path class="st0" d="M46,21.9l-0.7-2.3c-0.9-2.6-3.7-4-6.3-3.1c-1.5,0.5-2.6,1.6-3.1,3.1l-0.7,2.3c-0.6,1.9-0.7,4-0.4,6
	c0.3,1.7,1.4,3.1,2.9,3.9L37,49.2c-0.1,1,0.2,1.9,0.9,2.7c1.4,1.5,3.8,1.6,5.3,0.2c0.1-0.1,0.2-0.2,0.2-0.2c0.6-0.7,1-1.6,0.9-2.6
	l-0.8-17.5c1.5-0.8,2.6-2.2,2.9-3.9C46.7,25.9,46.6,23.8,46,21.9z M44.3,27.5c-0.2,1.2-1.1,2.2-2.2,2.6c-0.4,0.2-0.7,0.6-0.7,1.1
	l0.8,18.3c0,0.4-0.1,0.7-0.3,1c-0.7,0.6-1.7,0.6-2.4,0c-0.3-0.3-0.4-0.7-0.3-1.1l0.8-18.2c0-0.5-0.3-0.9-0.7-1.1
	c-1.2-0.4-2-1.4-2.2-2.6c-0.3-1.6-0.2-3.3,0.3-4.9l0.7-2.3c0.5-1.5,2.2-2.2,3.6-1.7c0.8,0.3,1.4,0.9,1.7,1.7l0.7,2.3
	C44.4,24.1,44.5,25.8,44.3,27.5z"/>
<path class="st0" d="M29.2,16.2c-0.6,0-1.1,0.5-1.1,1.1v9.3l-2.9,2.9c-0.2,0.2-0.3,0.5-0.3,0.8l0.9,19c0,0.4-0.1,0.8-0.4,1.1
	c-0.6,0.6-1.6,0.6-2.2,0c0,0,0,0,0,0c-0.3-0.3-0.4-0.7-0.4-1.1l1-19c0-0.3-0.1-0.6-0.3-0.8l-2.9-2.9v-9.3c0-0.6-0.5-1.1-1.1-1.1
	s-1.1,0.5-1.1,1.1v9.8c0,0.3,0.1,0.6,0.3,0.8l2.9,2.9l-0.9,18.5c-0.1,2,1.5,3.7,3.5,3.8c2,0.1,3.7-1.5,3.8-3.5c0-0.1,0-0.2,0-0.4
	l-0.9-18.5l2.9-2.9c0.2-0.2,0.3-0.5,0.3-0.8v-9.8C30.3,16.7,29.8,16.2,29.2,16.2z"/>
<path class="st0" d="M22.8,16.2c-0.6,0-1.1,0.5-1.1,1.1V26c0,0.6,0.5,1.1,1.1,1.1s1.1-0.5,1.1-1.1v-8.7
	C23.8,16.7,23.3,16.2,22.8,16.2z"/>
<path class="st0" d="M26,16.2c-0.6,0-1.1,0.5-1.1,1.1V26c0,0.6,0.5,1.1,1.1,1.1s1.1-0.5,1.1-1.1v-8.7C27.1,16.7,26.6,16.2,26,16.2z"
	/>
<path class="st0" d="M32.5,0C14.6,0,0,14.6,0,32.5S14.6,65,32.5,65S65,50.4,65,32.5C65,14.6,50.4,0,32.5,0z M32.5,62.8
	c-16.8,0-30.3-13.6-30.3-30.3S15.7,2.2,32.5,2.2s30.3,13.6,30.3,30.3C62.8,49.2,49.2,62.8,32.5,62.8z"/>
<path class="st0" d="M36,52.8c-0.1-0.6-0.6-1-1.2-1c0,0,0,0,0,0l0,0c-1.5,0.2-3.1,0.2-4.6,0c-0.6-0.1-1.1,0.4-1.2,1
	c-0.1,0.6,0.4,1.1,1,1.2c1.7,0.2,3.4,0.2,5.1,0C35.6,54,36.1,53.4,36,52.8z"/>
<path class="st0" d="M49.1,18.5c-0.4-0.5-1.1-0.5-1.5-0.1c0,0,0,0,0,0c-0.5,0.4-0.5,1.1-0.1,1.5c6.5,7.8,6,19.2-1.1,26.4
	c-0.4,0.4-0.4,1.1,0,1.5c0.4,0.4,1.1,0.4,1.5,0C55.8,39.9,56.3,27.2,49.1,18.5z"/>
<path class="st0" d="M25.2,14.3C25.2,14.3,25.2,14.3,25.2,14.3C25.2,14.3,25.2,14.3,25.2,14.3L25.2,14.3z"/>
<path class="st0" d="M37.6,11.4c-4.2-1-8.7-0.7-12.8,0.8c-0.6,0.2-0.8,0.8-0.6,1.4c0.2,0.4,0.6,0.7,1,0.7c0.1,0,0.3,0,0.4-0.1
	c3.7-1.4,7.7-1.6,11.5-0.7c0.6,0.1,1.2-0.2,1.3-0.8C38.5,12.2,38.2,11.6,37.6,11.4z"/>
<path class="st0" d="M18.7,46.3C15,42.6,13,37.7,13,32.5c0-4.1,1.3-8.1,3.7-11.5c0.4-0.5,0.3-1.2-0.2-1.5c-0.5-0.4-1.2-0.3-1.5,0.2
	c0,0,0,0,0,0c-6.3,8.6-5.3,20.5,2.2,28c0.4,0.4,1.1,0.4,1.5,0C19.1,47.4,19.1,46.7,18.7,46.3z"/>
</svg>
