<?xml version="1.0" encoding="utf-8"?>
<!-- Generator: Adobe Illustrator 26.5.0, SVG Export Plug-In . SVG Version: 6.00 Build 0)  -->
<svg version="1.1" id="Layer_1" xmlns="http://www.w3.org/2000/svg" xmlns:xlink="http://www.w3.org/1999/xlink" x="0px" y="0px"
	 viewBox="0 0 65 65" style="enable-background:new 0 0 65 65;" xml:space="preserve">
<style type="text/css">
	.st0{fill:#E69B00;}
</style>
<path class="st0" d="M6.1,34.5h5.4c-0.2,0.6-0.2,1.2-0.1,1.8c0.1,0.6,0.5,1.1,0.9,1.5l8.3,7.6l0,0c0,0,0,0,0,0l13.2,11.4h-0.3
	c-0.3,0-0.5,0.1-0.7,0.3c-0.2,0.2-0.3,0.4-0.3,0.7V62c0,0.3,0.1,0.5,0.3,0.7c0.2,0.2,0.4,0.3,0.7,0.3h12.2c0.3,0,0.5-0.1,0.7-0.3
	c0.2-0.2,0.3-0.4,0.3-0.7v-4.1c0-0.3-0.1-0.5-0.3-0.7c-0.2-0.2-0.4-0.3-0.7-0.3v-1.6l0.5-0.5c0.5-0.5,0.8-1,1.1-1.6
	c0.3-0.6,0.4-1.3,0.4-1.9v-6.2l3.7-8.1c0.3-0.7,0.4-1.5,0.1-2.3h7.4c0.8,0,1.6-0.3,2.2-0.9c0.6-0.6,0.9-1.3,0.9-2.2v-2
	c0-0.3-0.1-0.5-0.3-0.7c-0.2-0.2-0.4-0.3-0.7-0.3h-4.1v-1c0-11.8-9.6-21.3-21.3-21.3v-2h1c0.3,0,0.5-0.1,0.7-0.3
	c0.2-0.2,0.3-0.4,0.3-0.7c0-0.3-0.1-0.5-0.3-0.7C37.1,2.1,36.8,2,36.6,2h-8.1c-0.3,0-0.5,0.1-0.7,0.3c-0.2,0.2-0.3,0.4-0.3,0.7
	c0,0.3,0.1,0.5,0.3,0.7c0.2,0.2,0.4,0.3,0.7,0.3h1v2c-11.8,0-21.3,9.6-21.3,21.3v1H4.1c-0.3,0-0.5,0.1-0.7,0.3
	C3.2,28.9,3,29.2,3,29.5v2c0,0.8,0.3,1.6,0.9,2.2C4.5,34.2,5.3,34.5,6.1,34.5z M13.4,35.2c0.1-0.2,0.2-0.4,0.4-0.5
	c0.2-0.1,0.4-0.2,0.6-0.2h0.6c0.2,0,0.4,0.1,0.5,0.2c0.2,0.1,0.3,0.3,0.4,0.4l0.8,1.7v0l1.7,3.8l-4.7-4.3c-0.2-0.1-0.3-0.3-0.3-0.5
	C13.3,35.6,13.3,35.4,13.4,35.2z M44.7,60.9H34.5v-2h10.2V60.9z M49.5,35c0.1,0.1,0.1,0.3,0.2,0.5c0,0.2,0,0.3-0.1,0.5l-3.8,8.3
	c-0.1,0.1-0.1,0.3-0.1,0.4v6.4c0,0.4-0.1,0.8-0.2,1.2c-0.2,0.4-0.4,0.7-0.7,1L44,54.1c-0.1,0.1-0.2,0.2-0.2,0.3
	c-0.1,0.1-0.1,0.3-0.1,0.4v2h-6.7L22.2,44.1L18.5,36c-0.1-0.2-0.1-0.3-0.1-0.5c0-0.2,0.1-0.3,0.2-0.5c0.1-0.1,0.2-0.3,0.4-0.3
	c0.1-0.1,0.3-0.1,0.5-0.1h0.7c0.2,0,0.4,0.1,0.5,0.2c0.2,0.1,0.3,0.2,0.4,0.4l3.5,7c0.1,0.2,0.3,0.4,0.5,0.5l10.2,4.1
	c0.2,0.1,0.4,0.1,0.6,0l4.1-1c0.1,0,0.3-0.1,0.4-0.2c0.1-0.1,0.2-0.2,0.3-0.3L46,35.1c0.1-0.2,0.2-0.3,0.4-0.4
	c0.2-0.1,0.3-0.1,0.5-0.1h1.7c0.2,0,0.3,0,0.5,0.1C49.3,34.7,49.4,34.9,49.5,35z M23,34.5h21l-5.1,9.3l-3.3,0.8l-9.5-3.8L23,34.5z
	 M31.5,4.1h2v2h-2V4.1z M10.2,27.4c0-10.6,8.7-19.3,19.3-19.3h6.1c10.6,0,19.3,8.7,19.3,19.3v1H10.2V27.4z M5.1,30.5h54.8v1
	c0,0.3-0.1,0.5-0.3,0.7c-0.2,0.2-0.4,0.3-0.7,0.3H6.1c-0.3,0-0.5-0.1-0.7-0.3c-0.2-0.2-0.3-0.4-0.3-0.7V30.5z"/>
</svg>
